# xmcd
#
# Track frame offsets: 
#        150
#        19989
#        38144
#        59439
#        79916
#        101995
#        119718
#        132971
#        161352
#        178769
#        191984
#        201135
#        224356
#        245871
#        273680
#
# Disc length: 3859 seconds
#
# Revision: 0
# Processed by: cddbd v1.5.2PL0 Copyright (c) Steve Scherf et al.
# Submitted via: ExactAudioCopy v0.99pb5
#
DISCID=f10f110f
DTITLE=Recycling the Blues - Live at the Altstadtfest Neumarkt 2004
DYEAR=2004
DGENRE=Blues
TTITLE0=White Man's Blues
TTITLE1=Woman Trouble
TTITLE2=Sensitive Kind
TTITLE3=Talk to Your Daughter
TTITLE4=Feels Like Rain
TTITLE5=Mabellen
TTITLE6=Ballad of John and Yoko
TTITLE7=Mother Earth
TTITLE8=At the Dark End of the Street
TTITLE9=Future Blues
TTITLE10=Blue Jean Bop
TTITLE11=Having a Real Bad Day
TTITLE12=Use Me
TTITLE13=Life Is Hard
TTITLE14=One After 909
EXTD=
EXTT0=
EXTT1=
EXTT2=
EXTT3=
EXTT4=
EXTT5=
EXTT6=
EXTT7=
EXTT8=
EXTT9=
EXTT10=
EXTT11=
EXTT12=
EXTT13=
EXTT14=
PLAYORDER=
